<?xml version="1.0" encoding="UTF-8"?><svg id="Capa_1" xmlns="http://www.w3.org/2000/svg" viewBox="0 0 20 20"><defs><style>.cls-1{fill:#99999b;fill-rule:evenodd;}</style></defs><path class="cls-1" d="M1.58,14.21c-.5,0-.9,.4-.9,.9v1.8c0,.5,.4,.9,.9,.9h1.8c.5,0,.9-.4,.9-.9v-1.8c0-.5-.4-.9-.9-.9H1.58Zm-.9-5.11v1.81c0,.5,.4,.9,.9,.9h1.8c.5,0,.9-.4,.9-.9v-1.81c0-.5-.4-.9-.9-.9H1.58c-.5,0-.9,.4-.9,.9Zm6.62,5.72c-.66,0-1.2,.54-1.2,1.2s.54,1.2,1.2,1.2h10.83c.66,0,1.2-.54,1.2-1.2s-.54-1.2-1.2-1.2H7.29Zm0-6.02c-.66,0-1.2,.54-1.2,1.2s.54,1.2,1.2,1.2h10.83c.66,0,1.2-.54,1.2-1.2s-.54-1.2-1.2-1.2H7.29Zm0-6.02c-.66,0-1.2,.54-1.2,1.2s.54,1.2,1.2,1.2h10.83c.66,0,1.2-.54,1.2-1.2s-.54-1.2-1.2-1.2H7.29ZM1.58,2.18c-.5,0-.9,.4-.9,.9v1.8c0,.5,.4,.9,.9,.9h1.8c.5,0,.9-.4,.9-.9v-1.8c0-.5-.4-.9-.9-.9H1.58Z"/></svg>