<?xml version="1.0" encoding="UTF-8"?><svg id="Capa_1" xmlns="http://www.w3.org/2000/svg" viewBox="0 0 20 20"><defs><style>.cls-1{fill:#ccc;}</style></defs><path class="cls-1" d="M16.51,1.89H3.49c-.44,0-.84,.18-1.13,.47-.29,.29-.47,.69-.47,1.13v13.02c0,.44,.18,.84,.47,1.13,.29,.29,.69,.47,1.13,.47h13.02c.44,0,.84-.18,1.13-.47,.29-.29,.47-.69,.47-1.13V3.49c0-.44-.18-.84-.47-1.13-.29-.29-.69-.47-1.13-.47M6.16,14.76l-.92-.92c-.23-.23-.23-.61,0-.84l3-3-3-3c-.23-.23-.23-.61,0-.84l.92-.92c.23-.23,.61-.23,.84,0l3,3,3-3c.23-.23,.61-.23,.84,0l.92,.92c.23,.23,.23,.61,0,.84l-3,3,3,3c.23,.23,.23,.61,0,.84l-.92,.92c-.23,.23-.61,.23-.84,0l-3-3-3,3c-.23,.23-.61,.23-.84,0ZM3.49,.52h13.02c.82,0,1.56,.33,2.1,.87,.54,.54,.87,1.28,.87,2.1v13.02c0,.82-.33,1.56-.87,2.1-.54,.54-1.28,.87-2.1,.87H3.49c-.82,0-1.56-.34-2.1-.87-.54-.54-.87-1.28-.87-2.1V3.49c0-.82,.33-1.56,.87-2.1,.54-.54,1.28-.87,2.1-.87Z"/></svg>