<?xml version="1.0" encoding="UTF-8"?><svg id="Capa_1" xmlns="http://www.w3.org/2000/svg" viewBox="0 0 20 20"><defs><style>.cls-1{fill:#99999b;fill-rule:evenodd;}</style></defs><path class="cls-1" d="M14.61,16c-.76,0-1.38-.62-1.38-1.38s.62-1.39,1.38-1.39,1.39,.62,1.39,1.39-.62,1.38-1.39,1.38m-7.85-1.38c0,.76-.62,1.38-1.39,1.38s-1.38-.62-1.38-1.38,.62-1.39,1.38-1.39,1.39,.62,1.39,1.39Zm6-7.38h1.46l2.23,2.23v.54h-3.69v-2.77ZM2.15,2.62c-.77,0-1.39,.62-1.39,1.39V13.23c0,.76,.62,1.39,1.39,1.39h.46c0,1.53,1.24,2.77,2.77,2.77s2.77-1.24,2.77-2.77h3.69c0,1.53,1.24,2.77,2.77,2.77s2.77-1.24,2.77-2.77h.92c.51,0,.92-.41,.92-.92s-.41-.92-.92-.92v-3.31c0-.49-.19-.96-.54-1.31l-2.23-2.23c-.35-.35-.82-.54-1.31-.54h-1.46v-1.38c0-.76-.62-1.39-1.38-1.39H2.15Z"/></svg>