<?xml version="1.0" encoding="UTF-8"?><svg id="Capa_1" xmlns="http://www.w3.org/2000/svg" xmlns:xlink="http://www.w3.org/1999/xlink" viewBox="0 0 10 10"><defs><style>.cls-1{clip-path:url(#clippath);}.cls-2{clip-rule:evenodd;fill:none;}.cls-3{fill:#fee07c;fill-rule:evenodd;}</style><clipPath id="clippath"><path class="cls-2" d="m1.88.32h6.24c.86,0,1.56.7,1.56,1.56v6.24c0,.86-.7,1.56-1.56,1.56H1.88c-.86,0-1.56-.7-1.56-1.56V1.88C.32,1.02,1.02.32,1.88.32"/></clipPath></defs><g class="cls-1"><path class="cls-3" d="m3.78,3.78c0,.13-.11.24-.24.24s-.24-.11-.24-.24c0-.94.76-1.71,1.71-1.71.13,0,.24.11.24.24s-.11.24-.24.24c-.67,0-1.22.55-1.22,1.22m1.22,5.12c.67,0,1.22-.55,1.22-1.22v-.24h-2.44v.24c0,.67.55,1.22,1.22,1.22Zm1.22-1.95c.15-.49.45-.9.75-1.31.08-.11.16-.22.23-.33.3-.43.48-.96.48-1.53,0-1.48-1.2-2.68-2.68-2.68s-2.68,1.2-2.68,2.68c0,.57.18,1.1.48,1.53.08.11.16.22.23.33.3.41.6.83.75,1.31h2.44Z"/></g></svg>