<?xml version="1.0" encoding="UTF-8"?><svg id="Capa_1" xmlns="http://www.w3.org/2000/svg" viewBox="0 0 20 20"><defs><style>.cls-1{fill:#235c4f;fill-rule:evenodd;}</style></defs><path class="cls-1" d="M9.24,17.17c-1.08-.12-2.12-.36-3.14-.72-1.01-.36-1.93-.84-2.76-1.44l1.97-2.91c.7,.5,1.38,.89,2.04,1.18,.66,.29,1.34,.5,2.02,.61v-2.62c-.87-.2-1.64-.44-2.3-.7-.66-.26-1.22-.58-1.66-.95-.44-.37-.78-.8-1-1.3-.23-.49-.34-1.08-.34-1.77v-.04c0-.64,.12-1.23,.35-1.77,.23-.54,.57-1.01,1.02-1.41,.44-.4,.99-.72,1.64-.97,.65-.25,1.39-.4,2.22-.46V.65h2.27V1.96c.9,.1,1.73,.3,2.49,.59,.76,.29,1.46,.66,2.12,1.11l-1.79,2.93c-.45-.32-.93-.59-1.43-.81-.5-.22-1-.39-1.5-.5v2.53c.87,.2,1.63,.44,2.28,.71,.65,.27,1.19,.59,1.63,.96,.44,.37,.77,.81,.98,1.32,.22,.51,.33,1.1,.33,1.77v.04c0,.67-.12,1.27-.37,1.8-.25,.53-.6,.99-1.05,1.39-.45,.39-.99,.71-1.63,.94-.63,.23-1.34,.39-2.11,.46v2.14h-2.27v-2.19Zm.15-12.08c-.54,.04-.92,.16-1.15,.36-.23,.2-.34,.44-.34,.73v.04c0,.29,.1,.53,.29,.71,.2,.18,.59,.35,1.19,.51v-2.36Zm2.03,8.94c.98-.1,1.46-.47,1.46-1.11v-.04c0-.29-.1-.53-.31-.72-.2-.19-.59-.37-1.16-.52v2.4Z"/></svg>