<?xml version="1.0" encoding="UTF-8"?><svg id="Capa_1" xmlns="http://www.w3.org/2000/svg" viewBox="0 0 20 20"><defs><style>.cls-1{fill:#235c4f;fill-rule:evenodd;}</style></defs><path class="cls-1" d="M8.83,7.84V2.99h2.34V7.84c0,.87,.24,1.71,.69,2.45l1.26,2.05H6.88l1.26-2.05c.45-.74,.69-1.58,.69-2.45ZM12.34,.65H6.49c-.65,0-1.17,.52-1.17,1.17s.52,1.17,1.17,1.17V7.84c0,.43-.12,.86-.35,1.22l-3.95,6.43c-.24,.4-.38,.86-.38,1.33,0,1.4,1.14,2.53,2.53,2.53H15.65c1.4,0,2.54-1.14,2.54-2.53,0-.47-.13-.93-.38-1.33l-3.95-6.42c-.23-.37-.35-.79-.35-1.22V2.99c.65,0,1.17-.52,1.17-1.17s-.52-1.17-1.17-1.17h-1.17Z"/></svg>