<?xml version="1.0" encoding="UTF-8"?>
<!DOCTYPE svg PUBLIC "-//W3C//DTD SVG 1.1//EN" "http://www.w3.org/Graphics/SVG/1.1/DTD/svg11.dtd">
<!-- Creator: CorelDRAW Home & Student X8 -->
<svg xmlns="http://www.w3.org/2000/svg" xml:space="preserve" width="32px" height="32px" version="1.1" style="shape-rendering:geometricPrecision; text-rendering:geometricPrecision; image-rendering:optimizeQuality; fill-rule:evenodd; clip-rule:evenodd"
viewBox="0 0 3200000 3200000"
 xmlns:xlink="http://www.w3.org/1999/xlink">
 <defs>
  <style type="text/css">
   <![CDATA[
    .fil0 {fill:#BC955C}
   ]]>
  </style>
 </defs>
 <g id="Capa_x0020_1">
  <metadata id="CorelCorpID_0Corel-Layer"/>
  <path id="arrow-left-solid.svg" class="fil0" d="M3083656 207057c0,-53624 -43585,-97091 -97092,-97091l-686018 0c-53506,0 -97091,43467 -97091,97091 0,53507 43585,97092 97091,97092l452149 -236 -657671 657552c-37915,38033 -37915,99335 0,137250 38034,38034 99218,38034 137251,0l657434 -657433 118 451675c0,53507 43467,97092 97092,97092 53624,0 97091,-43585 97091,-97092l0 -686018 -354 118zm-2985856 0c0,-53624 43585,-97091 97091,-97091l686018 0c53507,0 97092,43467 97092,97091 0,53507 -43585,97092 -97092,97092l-452148 -236 657670 657552c37916,38033 37916,99335 0,137250 -38033,38034 -99217,38034 -137250,0l-657434 -657433 -118 451675c0,53507 -43467,97092 -97092,97092 -53625,0 -97091,-43585 -97091,-97092l0 -686018 354 118zm3004518 2779507c0,53625 -43585,97092 -97091,97092l-686018 0c-53507,0 -97092,-43467 -97092,-97092 0,-53506 43585,-97091 97092,-97091l452148 236 -657670 -657552c-37916,-38033 -37916,-99336 0,-137251 38033,-38033 99217,-38033 137251,0l657433 657434 119 -451676c0,-53506 43466,-97091 97091,-97091 53625,0 97091,43585 97091,97091l0 686018 -354 -118zm-3004400 6379c-118,53506 43349,96973 96973,96973l686018 0c53507,0 96974,-43467 97092,-96973 0,-53625 -43467,-97210 -97092,-97210l-452148 236 657670 -657552c37916,-37915 37916,-99217 -118,-137251 -37915,-37915 -99099,-38033 -137132,0l-657434 657316 -237 -451557c119,-53507 -43348,-97092 -96973,-97092 -53625,0 -97091,43467 -97091,97092l-118 686018 590 0z"/>
 </g>
</svg>
