<?xml version="1.0" encoding="UTF-8"?><svg id="Capa_1" xmlns="http://www.w3.org/2000/svg" viewBox="0 0 10 10"><defs><style>.cls-1{fill:#bc955c;fill-rule:evenodd;}</style></defs><path class="cls-1" d="m8.09,8.52c-.23,0-.42-.19-.42-.42s.19-.42.42-.42.42.19.42.42-.19.42-.42.42m-6.47-1.83c-.62,0-1.13.5-1.13,1.13v.56c0,.62.5,1.13,1.13,1.13h6.75c.62,0,1.13-.5,1.13-1.13v-.56c0-.62-.5-1.13-1.13-1.13h-1.78l-.8.8c-.44.44-1.15.44-1.59,0l-.79-.8h-1.78ZM5.56,1.06c0-.31-.25-.56-.56-.56s-.56.25-.56.56v4.27l-1.29-1.29c-.22-.22-.58-.22-.8,0-.22.22-.22.58,0,.8l2.25,2.25c.22.22.58.22.8,0l2.25-2.25c.22-.22.22-.58,0-.8-.22-.22-.58-.22-.8,0l-1.29,1.29V1.06Z"/></svg>