<?xml version="1.0" encoding="UTF-8"?>
<!DOCTYPE svg PUBLIC "-//W3C//DTD SVG 1.1//EN" "http://www.w3.org/Graphics/SVG/1.1/DTD/svg11.dtd">
<!-- Creator: CorelDRAW Home & Student X8 -->
<svg xmlns="http://www.w3.org/2000/svg" xml:space="preserve" width="26px" height="32px" version="1.1" style="shape-rendering:geometricPrecision; text-rendering:geometricPrecision; image-rendering:optimizeQuality; fill-rule:evenodd; clip-rule:evenodd"
viewBox="0 0 2600000 3200036"
 xmlns:xlink="http://www.w3.org/1999/xlink">
 <defs>
  <style type="text/css">
   <![CDATA[
    .fil0 {fill:#BC955C;fill-rule:nonzero}
   ]]>
  </style>
 </defs>
 <g id="Capa_x0020_1">
  <metadata id="CorelCorpID_0Corel-Layer"/>
  <path class="fil0" d="M683663 2030084c0,-49846 -34490,-79493 -95557,-79493 -24922,0 -41695,2480 -50554,4842l0 159813c10395,2363 23269,3189 40987,3189 64965,0 105124,-32836 105124,-88351zm377740 -77840c-27403,0 -45003,2363 -55515,4843l0 353998c10512,2480 27403,2480 42640,2480 110794,709 183082,-60240 183082,-189460 827,-112448 -65083,-171861 -170207,-171861zm701617 -1852317l-1205033 0c-176113,0 -319390,143277 -319390,319272l0 1180819 -31183 0c-71107,0 -128630,57523 -128630,128630l0 780402c0,71106 57523,128629 128630,128629l31183 0 0 143041c0,176231 143277,319389 319390,319389l1644076 0c175994,0 319271,-143276 319271,-319389l0 -1925078 -758314 -755715zm-1346656 1769517c37679,-6378 90714,-11103 165364,-11103 75477,0 129221,14410 165364,43231 34491,27285 57878,72288 57878,125322 0,52917 -17718,97920 -49846,128512 -41695,39215 -103470,56933 -175758,56933 -16182,0 -30593,-827 -41814,-2363l0 193477 -121188 0 0 -534009zm1785699 1035063l-1644076 0c-68272,0 -123787,-55516 -123787,-123787l0 -143041 1532809 0c71107,0 128630,-57523 128630,-128629l0 -780402c0,-71107 -57523,-128630 -128630,-128630l-1532809 0 0 -1180819c0,-68036 55515,-123551 123787,-123551l1131800 -1181 0 418371c0,122134 99219,221471 221470,221471l409868 -1300 4606 1847711c0,68271 -55397,123787 -123668,123787zm-1319017 -503535l0 -531528c45002,-7087 103589,-11103 165482,-11103 102762,0 169380,18426 221588,57759 56224,41696 91541,108314 91541,203989 0,103471 -37679,175050 -89887,219108 -57051,47365 -143749,69925 -249700,69925 -63547,0 -108432,-4134 -139024,-8150zm876431 -314665l0 99573 -194422 0 0 217573 -122842 0 0 -541096 330847 0 0 100282 -208005 0 0 123668 194422 0z"/>
 </g>
</svg>
