<?xml version="1.0" encoding="UTF-8"?>
<!DOCTYPE svg PUBLIC "-//W3C//DTD SVG 1.1//EN" "http://www.w3.org/Graphics/SVG/1.1/DTD/svg11.dtd">
<!-- Creator: CorelDRAW Home & Student X8 -->
<svg xmlns="http://www.w3.org/2000/svg" xml:space="preserve" width="35px" height="35px" version="1.1" style="shape-rendering:geometricPrecision; text-rendering:geometricPrecision; image-rendering:optimizeQuality; fill-rule:evenodd; clip-rule:evenodd"
viewBox="0 0 3500000 3500000"
 xmlns:xlink="http://www.w3.org/1999/xlink">
 <defs>
  <style type="text/css">
   <![CDATA[
    .fil0 {fill:#BC955C;fill-rule:nonzero}
   ]]>
  </style>
 </defs>
 <g id="Capa_x0020_1">
  <metadata id="CorelCorpID_0Corel-Layer"/>
  <path class="fil0" d="M609831 439154c394151,0 376906,0 771058,0 84807,0 154259,69452 154259,154259l0 0c0,84806 -69452,154140 -154259,154140 -394152,0 -376907,0 -771058,0 -14056,0 -26813,5906 -36262,15237 -9331,9331 -15119,22206 -15119,36144l0 1902132c0,13938 5788,26813 15119,36144 9449,9331 22206,15237 36262,15237l1902014 0c14056,0 26813,-5906 36262,-15237 9331,-9331 15237,-22206 15237,-36144l0 -668297 0 -51381c0,-84807 69334,-154259 154140,-154259l0 0c84807,0 154259,69452 154259,154259l0 51381 0 668297c0,99099 -40395,189103 -105595,254185 -65082,65200 -155086,105595 -254303,105595l-1902014 0c-99099,0 -189103,-40395 -254303,-105595 -65082,-65082 -105595,-155086 -105595,-254185l0 -1902132c0,-99099 40513,-189103 105595,-254185 65200,-65200 155204,-105595 254303,-105595zm1088434 1174186c-31182,-20906 -98980,-96146 -130754,-127919l-261507 -261390c-22915,-22914 -41813,-41812 -64610,-64845 -62128,-62837 -146227,-44648 -205403,11221 -30710,29056 -182842,178709 -203749,212372 -13937,22324 -16772,47482 -16772,78783 0,61656 52679,100516 85752,133470l657785 657904c85752,85634 146936,137132 264343,19607l1352187 -1352187c53388,-53388 74530,-65436 74530,-144809 0,-65554 -85870,-133707 -139140,-186859 -28584,-28584 -53152,-52916 -81499,-81618 -47128,-47601 -111501,-70397 -174103,-36261 -38033,20788 -87405,75712 -115517,103705l-891182 891300c-25749,25631 -47364,47246 -73113,72995 -22796,22915 -52680,57995 -77248,74531z"/>
 </g>
</svg>
