<?xml version="1.0" encoding="UTF-8"?><svg id="Capa_1" xmlns="http://www.w3.org/2000/svg" viewBox="0 0 40 40"><defs><style>.cls-1{fill:#bc955c;}</style></defs><path class="cls-1" d="M19.58,19.06c-.32-.22-1.02-.99-1.34-1.31l-2.69-2.69c-.24-.24-.43-.43-.66-.67-.64-.65-1.5-.46-2.11,.12-.32,.3-1.88,1.84-2.09,2.18-.14,.23-.17,.49-.17,.81,0,.63,.54,1.03,.88,1.37l6.76,6.76c.88,.88,1.51,1.41,2.71,.2l13.89-13.89c.55-.55,.76-.67,.76-1.49,0-.67-.88-1.37-1.43-1.92-.29-.29-.55-.54-.84-.84-.48-.49-1.15-.72-1.79-.37-.39,.21-.9,.78-1.19,1.07l-9.15,9.15c-.26,.26-.49,.49-.75,.75-.24,.24-.54,.6-.79,.77M8.4,7h7.92c.87,0,1.58,.71,1.58,1.58s-.71,1.58-1.58,1.58h-7.92c-.14,0-.27,.06-.37,.16-.1,.1-.16,.23-.16,.37V30.23c0,.14,.06,.28,.16,.37,.1,.1,.23,.16,.37,.16H27.93c.14,0,.28-.06,.37-.16,.1-.1,.16-.23,.16-.37v-7.39c0-.87,.71-1.58,1.58-1.58s1.58,.71,1.58,1.58v7.39c0,1.02-.42,1.94-1.09,2.61-.67,.67-1.59,1.09-2.61,1.09H8.4c-1.02,0-1.94-.42-2.61-1.09-.67-.67-1.09-1.59-1.09-2.61V10.7c0-1.02,.42-1.94,1.09-2.61,.67-.67,1.59-1.08,2.61-1.08Z"/></svg>