<?xml version="1.0" encoding="UTF-8"?>
<!DOCTYPE svg PUBLIC "-//W3C//DTD SVG 1.1//EN" "http://www.w3.org/Graphics/SVG/1.1/DTD/svg11.dtd">
<!-- Creator: CorelDRAW Home & Student X8 -->
<svg xmlns="http://www.w3.org/2000/svg" xml:space="preserve" width="260px" height="130px" version="1.1" style="shape-rendering:geometricPrecision; text-rendering:geometricPrecision; image-rendering:optimizeQuality; fill-rule:evenodd; clip-rule:evenodd"
viewBox="0 0 26000000 13000000"
 xmlns:xlink="http://www.w3.org/1999/xlink">
 <defs>
  <style type="text/css">
   <![CDATA[
    .fil13 {fill:none;fill-rule:nonzero}
    .fil18 {fill:#16202E;fill-rule:nonzero}
    .fil14 {fill:#235B4E;fill-rule:nonzero}
    .fil6 {fill:#252E3B;fill-rule:nonzero}
    .fil19 {fill:#2C3C43;fill-rule:nonzero}
    .fil22 {fill:#303451;fill-rule:nonzero}
    .fil2 {fill:#48753A;fill-rule:nonzero}
    .fil5 {fill:#4DA8F2;fill-rule:nonzero}
    .fil11 {fill:#6F7271;fill-rule:nonzero}
    .fil1 {fill:#97A43C;fill-rule:nonzero}
    .fil10 {fill:#98989A;fill-rule:nonzero}
    .fil7 {fill:#9F2241;fill-rule:nonzero}
    .fil9 {fill:#A77860;fill-rule:nonzero}
    .fil0 {fill:#BBD070;fill-rule:nonzero}
    .fil3 {fill:#BC955C;fill-rule:nonzero}
    .fil16 {fill:#C4C1CC;fill-rule:nonzero}
    .fil4 {fill:#D4BB92;fill-rule:nonzero}
    .fil12 {fill:#DBD8E3;fill-rule:nonzero}
    .fil21 {fill:#E09B79;fill-rule:nonzero}
    .fil23 {fill:#E8A088;fill-rule:nonzero}
    .fil8 {fill:#EEA886;fill-rule:nonzero}
    .fil15 {fill:#EEA987;fill-rule:nonzero}
    .fil17 {fill:#EFAA88;fill-rule:nonzero}
    .fil20 {fill:#FEFEFE;fill-rule:nonzero}
   ]]>
  </style>
   <clipPath id="id0" style="clip-rule:nonzero">
    <path d="M1636073 10420575c8504,-585949 788627,-1675758 788627,-1675758 0,0 36142,-15355 36614,-13819 591,590 40276,-5551 40276,-5079 827,0 121182,-114804 122009,-114804 28582,104292 287127,1576191 350435,2432968 -732761,-143859 -1342213,-344058 -1337961,-623508zm6538504 -2646040c46300,-626224 78662,-1211936 96969,-1758081 -151064,-79961 -332718,-173505 -477995,-242482 -449884,-214253 -1076581,-502680 -1478749,-687170 -235513,-108189 -466066,-187205 -466066,-187205 0,0 -1607372,-154017 -1737884,-145867 -41103,2480 -242010,72402 -505515,172914 -570004,216261 -1668908,656697 -1843830,782367 -256655,183662 -1174850,4684280 -1199181,4989951 -23858,296813 1248669,703115 2427180,1014337 -708,355514 -6496,821934 -13819,1286701l5101212 0c-28937,-397561 -68150,-922447 -53504,-1437056 0,0 -12402,-726737 59646,-1039494 7914,-1381308 91536,-2748915 91536,-2748915z"/>
   </clipPath>
   <clipPath id="id1" style="clip-rule:nonzero">
    <path d="M8217097 13000000c-14528,-112324 -28701,-224056 -42047,-334726 0,-1300 -473,-2126 -473,-3426 -9331,-79606 -18898,-158032 -27874,-236222 -591,-3779 -827,-7913 -1299,-12401 -37678,-328939 -68977,-644532 -91536,-933549 -16890,-221340 -1536,-437719 28819,-649256 89764,-1477450 134292,-3035215 134292,-3035215 47126,-637563 74174,-1233551 92245,-1789027 0,0 -2018280,-953864 -2201352,-1008549 0,0 382915,899060 670043,2908364 110316,771737 314648,2070839 463113,3396635l0 236c64371,573901 173978,1156306 274018,1697136l702051 0z"/>
   </clipPath>
   <clipPath id="id2" style="clip-rule:nonzero">
    <path d="M2481511 9888367c-17717,-672288 -14646,-1141424 -14646,-1141424 66615,230316 158623,888667 239647,1542883 -272718,-137245 -221576,-265631 -225001,-401459zm2428125 1130558c79607,-747052 151182,-1492568 116694,-1901114 -278388,-3284193 -1066070,-4153490 -1180283,-4280813 -88347,33661 -424491,159922 -522877,198899 -538704,212363 -1636782,601539 -1784657,707839 -256655,183780 -1268393,4901958 -1298866,5207039 -20433,206340 1299929,637327 2646867,1022014 -9213,275671 7913,635909 -33898,1027211l1836389 0c20551,-169253 41575,-342286 62362,-521342 563153,145749 945951,239647 945951,239647 0,0 528901,-894218 682445,-1256346 26221,-61772 -654689,-225356 -1470127,-443034z"/>
   </clipPath>
   <clipPath id="id3" style="clip-rule:nonzero">
    <path d="M4026520 4805226c0,0 204451,-386223 147993,-1483001 -15590,-303900 1595916,720595 1595916,720595 0,0 -5552,104646 -8977,245907 -1771,58937 -2953,123308 -2953,189568 0,18307 237,36614 237,54921 354,30001 590,59646 1181,89410 708,36851 2126,72875 3897,107600 1890,39449 4489,76772 8268,111024 6614,66260 45591,183190 59646,215316 73938,170434 -1201779,180237 -1805208,-251340z"/>
   </clipPath>
   <clipPath id="id4" style="clip-rule:nonzero">
    <path d="M5377710 5502789l297049 399097c0,0 -174096,232915 -483074,60945l186025 -460042z"/>
   </clipPath>
   <clipPath id="id5" style="clip-rule:nonzero">
    <path d="M5595270 5918067c0,0 1088156,2657733 855950,6033698l-343230 622799 -386932 -530436c0,0 -62480,-4483610 -371341,-6136691l245553 10630z"/>
   </clipPath>
   <clipPath id="id6" style="clip-rule:nonzero">
    <path d="M5695664 5130740l-317954 372049c0,0 -510358,-98859 -660240,-365435 -149883,-266695 978194,-6614 978194,-6614z"/>
   </clipPath>
   <clipPath id="id7" style="clip-rule:nonzero">
    <path d="M5768657 4805108c0,0 -36969,283702 -390947,697681l386459 519216 209056 -1077054 -204568 -139843z"/>
   </clipPath>
   <clipPath id="id8" style="clip-rule:nonzero">
    <path d="M4123608 4464003c0,0 737957,834691 1254102,1038786l-240002 593626 -1177802 -1299221 163702 -333191z"/>
   </clipPath>
   <clipPath id="id9" style="clip-rule:nonzero">
    <path d="M11710347 12015900c0,0 -979613,-949967 -1622018,-1107999 -297049,-73111 -688233,-483074 -1059928,-965085 -122599,-158741 -242718,-325277 -357167,-490160 -237,-355 -237,-709 -237,-709 -456144,-658469 -813430,-1289653 -813430,-1289653 0,0 -1348118,-1579853 -266340,-2284148 0,0 463586,-9921 717878,128150 261498,141970 819218,1306071 913825,1512175 94607,205867 1118983,2120564 1187605,2163556 68623,42993 182954,200434 592917,421066 501736,270238 1290126,1061108 1290126,1061108l-583231 851699z"/>
   </clipPath>
   <clipPath id="id10" style="clip-rule:nonzero">
    <path d="M6685907 13000000l-51142 -29528c-23977,-13464 -45237,-24567 -59646,-30236 -60473,-23977 -200198,-58465 -329058,-156733 -128859,-98151 -548743,-491106 -548743,-491106l271419 -417168 125316 -413152c0,0 979021,97324 1109652,174923 12638,7677 24921,15708 35906,24094 104174,76418 149646,177167 199844,223466 18189,17126 188741,199726 179174,273663 -13110,102757 -63898,168663 -127560,199962 0,0 -34607,199962 -137954,289490 0,0 -25984,185670 -186261,260198 0,0 -11456,44292 -36023,92127l-444924 0z"/>
   </clipPath>
   <clipPath id="id11" style="clip-rule:nonzero">
    <path d="M5449285 492641c0,0 1769538,-426617 1396898,1813830 -372758,2240446 -797249,2422219 -1875247,1975642 -1077881,-446696 -1002999,-1879854 -1067251,-2581079 -64252,-701107 979612,-1175676 1545600,-1208393z"/>
   </clipPath>
   <clipPath id="id12" style="clip-rule:nonzero">
    <path d="M4519634 2044146c-26339,-196773 -417050,-263269 -443979,32717 -27048,295986 188977,811658 336025,758509 147167,-53269 144214,-519807 107954,-791226z"/>
   </clipPath>
   <clipPath id="id13" style="clip-rule:nonzero">
    <path d="M4007032 2846474c0,0 35433,-704768 292325,-730516 256891,-25748 300592,257245 300592,257245l260317 45237c0,0 -91064,-615949 164056,-727446 255238,-111614 1668553,315239 1872058,131104 203387,-184135 88111,-1434340 -287245,-1600168 -375121,-165827 -1410245,-534570 -2157061,-12992 0,0 -588901,-58465 -669098,417286 -80198,475751 59055,1869697 224056,2220250z"/>
   </clipPath>
   <clipPath id="id14" style="clip-rule:nonzero">
    <path d="M6427952 11462077l-730634 1256228c0,0 -1935602,-498782 -2387259,-626224l1032408 -1228826c0,0 1522096,347837 2085485,598822z"/>
   </clipPath>
   <clipPath id="id15" style="clip-rule:nonzero">
    <path d="M5763814 4730226l-236 0c-949139,-96733 -1317055,-827486 -1317055,-827486 596933,591736 1311976,575555 1311976,575555 0,18307 237,36614 237,54921 354,30001 590,59646 1181,89410 708,36851 2126,72875 3897,107600z"/>
   </clipPath>
   <clipPath id="id16" style="clip-rule:nonzero">
    <path d="M7147839 8711746l-461224 4288254 6461142 0 333191 0 461223 -4288254 -6794332 0z"/>
   </clipPath>
   <clipPath id="id17" style="clip-rule:nonzero">
    <path d="M13791698 13000000l485081 -4509830 -6741064 0 -485082 4509830 -53268 0 490751 -4562862 6847601 0 -490751 4562862 -53268 0z"/>
   </clipPath>
   <clipPath id="id18" style="clip-rule:nonzero">
    <path d="M9909627 11034279c-54567,267167 70040,518271 278387,560909 208466,42520 421538,-139489 476224,-406774 54567,-267167 -70040,-518389 -278388,-560909 -208466,-42638 -421538,139489 -476223,406774z"/>
   </clipPath>
 </defs>
 <g id="Capa_x0020_1">
  <metadata id="CorelCorpID_0Corel-Layer"/>
  <g id="_1373419792">
   <path class="fil0" d="M18223221 1599577c0,0 1054730,4200143 -1477687,5348418 -2532535,1148038 -2047335,-954219 -2047335,-954219 0,0 -1038786,-288663 1788082,-1891310 1332410,-755320 1736940,-2502889 1736940,-2502889z"/>
   <path class="fil1" d="M24855505 1966193c0,0 519098,3661085 -4273609,5243654 -4792942,1582568 -5475387,3590100 -5475387,3590100 0,0 -143387,-8114576 9748996,-8833754z"/>
   <path class="fil2" d="M15085013 9308797c-1421111,-542366 1956862,-3450966 4553059,-3372422 2596078,78661 4355341,1039376 6094170,633429 0,0 -3648919,5410072 -10647229,2738993z"/>
  </g>
  <path class="fil3" d="M9211355 6717560c-886895,-903548 -873312,-2355132 30236,-3242027 903667,-887013 2355251,-873431 3242146,30236 887013,903549 873431,2355133 -30236,3242028 -903667,886895 -2355133,873312 -3242146,-30237zm5411489 663311c213781,-355041 372759,-734059 477523,-1124652l845320 -162048 8740 -934848 8741 -935085 -842132 -177639c-97559,-392482 -249450,-774335 -456498,-1133392l482837 -711737 -655043 -667209 -654925 -667327 -720595 469491c-355042,-213780 -734060,-372876 -1124653,-477640l-162048 -845202 -934966 -8859 -934967 -8622 -177638 842131c-392601,97442 -774336,249451 -1133393,456499l-711737 -482837 -667327 655043 -667208 654925 469491 720595c-213781,355042 -372877,733942 -477523,1124653l-845438 161930 -8622 934966 -8740 934966 842131 177639c97441,392601 249450,774454 456499,1133511l-482838 711619 654925 667326 655043 667327 720595 -469491c355042,213781 733942,372876 1124653,477641l161930 845320 935084 8622 934849 8740 177757 -842249c392482,-97323 774335,-249332 1133274,-456499l711737 482956 667327 -655043 667327 -654926 -469492 -720595z"/>
  <path class="fil4" d="M11013256 2815293c558783,25157 1109652,253584 1532371,684216 887013,903549 873431,2355133 -30236,3242028 -394136,386813 -892565,602248 -1402922,647366 613822,27992 1237330,-189450 1710483,-653862 903667,-886895 917249,-2338479 30236,-3242028 -500200,-509648 -1180046,-736185 -1839932,-677720zm3124625 -1654026l-116103 -118229 -571303 372167c53150,29174 106064,59410 158269,90828l529137 -344766zm-3687778 -986227l-305553 -2834 -177639 842131c-329175,81733 -650792,201733 -957762,360474l131930 89529c359057,-207049 740792,-359058 1133393,-456499l175631 -832801zm-2150328 933668l-177994 -120710 -667326 655043 -667209 654926 469491 720595c-213781,355041 -372876,733941 -477523,1124652l-845438 161930 -8622 934966 -8740 934967 842131 177639c97441,392600 249450,774453 456499,1133510l-482838 711619 654925 667327 655044 667327 191458 -124725 -538941 -549098 -654925 -667327 482838 -711619c-207049,-359057 -359058,-740910 -456499,-1133510l-842131 -177639 8740 -934967 8622 -934966 845438 -161930c104647,-390711 263742,-769611 477523,-1124653l-469491 -720594 667209 -654926 537759 -527837zm621145 8045127c308506,168544 633311,297521 966502,386813l161930 845320 935085 8623 934848 8740 2008 -9331 -629295 -5906 -935085 -8622 -161930 -845320c-390711,-104764 -769611,-263860 -1124652,-477640l-149411 97323zm4441326 40276l579807 393427 129568 -127205 -533744 -362246c-57992,33425 -116457,65433 -175631,96024z"/>
  <path class="fil0" d="M4552941 3757464c0,0 -2609543,1841586 -1745444,3701479 864100,1859893 1603711,450947 1603711,450947 0,0 719650,338152 -90473,-1917531 -381853,-1063117 232206,-2234895 232206,-2234895z"/>
  <path class="fil1" d="M667799 773272c0,0 -387404,339806 -667799,985518l0 2896435c126851,347246 301773,715989 536106,1105519 1919421,3189704 1335716,4640461 1335716,4640461 0,0 3982229,-4468846 -1204023,-9627933z"/>
  <path class="fil2" d="M2600803 9577735c1055558,380081 565161,-2870923 -924454,-4075300 -577445,-467011 -1148393,-799257 -1676349,-1093117l0 3648329c646067,589256 1492096,1120873 2600803,1520088z"/>
  <path class="fil5" d="M19435511 9429152l-118 118c-20787,7559 -42992,12165 -66142,13464l0 0c-5079,237 -10275,237 -15472,237 -21733,-237 -42757,-3662 -62717,-9686 -27638,-8267 -53032,-21259 -75237,-38504 -8150,-6141 -15709,-13110 -22913,-20315 -41694,-42402 -67324,-100630 -66379,-164765 236,-16653 2244,-32834 5906,-48543 1771,-7559 3661,-15000 6141,-22323 31182,-92009 118820,-157796 221104,-156379 73583,827 138781,36260 180119,90473 30355,39685 47953,89174 47363,142796 -1299,98505 -64252,181773 -151655,213427zm166773 -401223c-55276,-73347 -142678,-121182 -241537,-122363 -136536,-1772 -253466,85866 -294923,208584l0 0c-10157,29764 -15709,61535 -16181,94607 -473,38504 6260,75472 18780,109607 19960,54685 55039,102166 100276,137244 45000,34843 99922,57520 159922,62954 7913,708 16063,1181 24213,1299 5079,118 10157,-118 15236,-355 1772,0 3543,0 5315,0 30827,-1653 60473,-7913 88347,-18070 116576,-42284 200552,-153309 202324,-284766 827,-70748 -22323,-136300 -61772,-188741z"/>
  <path class="fil0" d="M16590927 3586911c0,0 -1518316,1444734 -779768,2569622 738548,1124889 1084258,139607 1084258,139607 0,0 499492,150710 -241891,-1236149 -349490,-653744 -62599,-1473080 -62599,-1473080z"/>
  <path class="fil6" d="M18964603 3998764c0,0 730398,-2141706 -663193,-2805607 -1393709,-664020 -2576827,295750 -2800411,815084 -223466,519333 -164292,1463630 26339,2122217 190513,658351 162875,1660876 -251340,1996075 -414097,335317 -927525,892092 -902250,2025485 15827,703114 2766986,-1798594 2766986,-1798594l1823869 -2354660z"/>
  <path class="fil7" d="M17006560 6546299c0,0 -1145440,253821 -1600167,519571 -454610,265631 -1464222,1487843 -1464222,2013437 0,525476 4415342,1016345 4415342,1016345l795595 2904348 605555 0c679965,-193584 1753948,-540476 1933122,-845202 265750,-451774 -847564,-3688723 -1038077,-4343885 -194411,-668389 -994376,-1134337 -1924264,-1264614 -929887,-130276 -1722884,0 -1722884,0z"/>
  <path class="fil8" d="M18650074 6535788c0,0 -25749,1392173 -1129850,1433512 -1104101,41221 -874257,-1335362 -874257,-1335362 0,0 807525,-327168 2004107,-98150z"/>
  <path class="fil6" d="M19117202 2334699c0,0 390475,2239148 -721776,3856559 -1151818,1675286 721776,-3856559 721776,-3856559z"/>
  <path class="fil8" d="M18413143 5551451c0,0 -76772,665909 51378,1080006 128151,414216 -1688160,425554 -1687215,85158 1181,-386931 185789,-710083 11930,-1373157 -173978,-663075 1623907,207993 1623907,207993z"/>
  <path class="fil9" d="M17004079 5636373c0,0 573547,597405 1306898,62362 0,0 -60591,381853 -588074,431105 -527366,49371 -718824,-493467 -718824,-493467z"/>
  <path class="fil8" d="M17722312 1558356c0,0 1449458,428861 1242291,2440408 -207048,2011312 -1153590,1907728 -1242291,1922610 -88701,14764 -1212763,88702 -1567687,-2351589 -355041,-2440290 1567687,-2011429 1567687,-2011429z"/>
  <path class="fil6" d="M17348137 2455290c0,0 787563,1252803 1616466,1543474 0,0 452719,-2102256 -1416741,-2542692 -1869342,-440436 -1576545,2123280 -1437056,2806907 0,0 389412,-1005833 1237331,-1807689z"/>
  <path class="fil7" d="M16291752 2266549c0,0 414688,-802800 1114613,-838706 700162,-35905 1116385,571421 1116385,571421 0,0 -273309,-683744 -1115440,-683744 -842131,0 -1115558,951029 -1115558,951029z"/>
  <polygon class="fil10" points="19141769,8580997 19617166,13000000 13147757,13000000 12672360,8580997 "/>
  <path class="fil10" d="M13002126 12937519l6412598 0 -485436 -4513373 -6412598 0 485436 4513373zm6475551 56339l-6526102 0 -497602 -4626170 6525984 0 497720 4626170z"/>
  <path class="fil11" d="M16554195 10791916c58110,284293 -74528,551578 -296223,596814 -221576,45355 -448349,-148347 -506459,-432640 -58111,-284293 74410,-551578 296104,-596815 221694,-45354 448467,148348 506578,432641z"/>
  <polygon class="fil10" points="20228981,13000000 20228981,12691376 19021769,12691376 19021769,13000000 "/>
  <path class="fil12" d="M1636073 10420575c8504,-585949 788627,-1675758 788627,-1675758 0,0 36142,-15355 36614,-13819 591,590 40276,-5551 40276,-5079 827,0 121182,-114804 122009,-114804 28582,104292 287127,1576191 350435,2432968 -732761,-143859 -1342213,-344058 -1337961,-623508zm6538504 -2646040c46300,-626224 78662,-1211936 96969,-1758081 -151064,-79961 -332718,-173505 -477995,-242482 -449884,-214253 -1076581,-502680 -1478749,-687170 -235513,-108189 -466066,-187205 -466066,-187205 0,0 -1607372,-154017 -1737884,-145867 -41103,2480 -242010,72402 -505515,172914 -570004,216261 -1668908,656697 -1843830,782367 -256655,183662 -1174850,4684280 -1199181,4989951 -23858,296813 1248669,703115 2427180,1014337 -708,355514 -6496,821934 -13819,1286701l5101212 0c-28937,-397561 -68150,-922447 -53504,-1437056 0,0 -12402,-726737 59646,-1039494 7914,-1381308 91536,-2748915 91536,-2748915z"/>
  <g style="clip-path:url(#id0)">
   <g id="_1373413024">
   </g>
  </g>
  <path id="1" class="fil13" d="M1636073 10420575c8504,-585949 788627,-1675758 788627,-1675758 0,0 36142,-15355 36614,-13819 591,590 40276,-5551 40276,-5079 827,0 121182,-114804 122009,-114804 28582,104292 287127,1576191 350435,2432968 -732761,-143859 -1342213,-344058 -1337961,-623508zm6538504 -2646040c46300,-626224 78662,-1211936 96969,-1758081 -151064,-79961 -332718,-173505 -477995,-242482 -449884,-214253 -1076581,-502680 -1478749,-687170 -235513,-108189 -466066,-187205 -466066,-187205 0,0 -1607372,-154017 -1737884,-145867 -41103,2480 -242010,72402 -505515,172914 -570004,216261 -1668908,656697 -1843830,782367 -256655,183662 -1174850,4684280 -1199181,4989951 -23858,296813 1248669,703115 2427180,1014337 -708,355514 -6496,821934 -13819,1286701l5101212 0c-28937,-397561 -68150,-922447 -53504,-1437056 0,0 -12402,-726737 59646,-1039494 7914,-1381308 91536,-2748915 91536,-2748915z"/>
  <path class="fil14" d="M8217097 13000000c-14528,-112324 -28701,-224056 -42047,-334726 0,-1300 -473,-2126 -473,-3426 -9331,-79606 -18898,-158032 -27874,-236222 -591,-3779 -827,-7913 -1299,-12401 -37678,-328939 -68977,-644532 -91536,-933549 -16890,-221340 -1536,-437719 28819,-649256 89764,-1477450 134292,-3035215 134292,-3035215 47126,-637563 74174,-1233551 92245,-1789027 0,0 -2018280,-953864 -2201352,-1008549 0,0 382915,899060 670043,2908364 110316,771737 314648,2070839 463113,3396635l0 236c64371,573901 173978,1156306 274018,1697136l702051 0z"/>
  <g style="clip-path:url(#id1)">
   <g id="_1373412304">
   </g>
  </g>
  <path id="1" class="fil13" d="M8217097 13000000c-14528,-112324 -28701,-224056 -42047,-334726 0,-1300 -473,-2126 -473,-3426 -9331,-79606 -18898,-158032 -27874,-236222 -591,-3779 -827,-7913 -1299,-12401 -37678,-328939 -68977,-644532 -91536,-933549 -16890,-221340 -1536,-437719 28819,-649256 89764,-1477450 134292,-3035215 134292,-3035215 47126,-637563 74174,-1233551 92245,-1789027 0,0 -2018280,-953864 -2201352,-1008549 0,0 382915,899060 670043,2908364 110316,771737 314648,2070839 463113,3396635l0 236c64371,573901 173978,1156306 274018,1697136l702051 0z"/>
  <path class="fil14" d="M2481511 9888367c-17717,-672288 -14646,-1141424 -14646,-1141424 66615,230316 158623,888667 239647,1542883 -272718,-137245 -221576,-265631 -225001,-401459zm2428125 1130558c79607,-747052 151182,-1492568 116694,-1901114 -278388,-3284193 -1066070,-4153490 -1180283,-4280813 -88347,33661 -424491,159922 -522877,198899 -538704,212363 -1636782,601539 -1784657,707839 -256655,183780 -1268393,4901958 -1298866,5207039 -20433,206340 1299929,637327 2646867,1022014 -9213,275671 7913,635909 -33898,1027211l1836389 0c20551,-169253 41575,-342286 62362,-521342 563153,145749 945951,239647 945951,239647 0,0 528901,-894218 682445,-1256346 26221,-61772 -654689,-225356 -1470127,-443034z"/>
  <g style="clip-path:url(#id2)">
   <g id="_1373411488">
   </g>
  </g>
  <path id="1" class="fil13" d="M2481511 9888367c-17717,-672288 -14646,-1141424 -14646,-1141424 66615,230316 158623,888667 239647,1542883 -272718,-137245 -221576,-265631 -225001,-401459zm2428125 1130558c79607,-747052 151182,-1492568 116694,-1901114 -278388,-3284193 -1066070,-4153490 -1180283,-4280813 -88347,33661 -424491,159922 -522877,198899 -538704,212363 -1636782,601539 -1784657,707839 -256655,183780 -1268393,4901958 -1298866,5207039 -20433,206340 1299929,637327 2646867,1022014 -9213,275671 7913,635909 -33898,1027211l1836389 0c20551,-169253 41575,-342286 62362,-521342 563153,145749 945951,239647 945951,239647 0,0 528901,-894218 682445,-1256346 26221,-61772 -654689,-225356 -1470127,-443034z"/>
  <path class="fil15" d="M4026520 4805226c0,0 204451,-386223 147993,-1483001 -15590,-303900 1595916,720595 1595916,720595 0,0 -5552,104646 -8977,245907 -1771,58937 -2953,123308 -2953,189568 0,18307 237,36614 237,54921 354,30001 590,59646 1181,89410 708,36851 2126,72875 3897,107600 1890,39449 4489,76772 8268,111024 6614,66260 45591,183190 59646,215316 73938,170434 -1201779,180237 -1805208,-251340z"/>
  <g style="clip-path:url(#id3)">
   <g id="_1373410984">
   </g>
  </g>
  <path id="1" class="fil13" d="M4026520 4805226c0,0 204451,-386223 147993,-1483001 -15590,-303900 1595916,720595 1595916,720595 0,0 -5552,104646 -8977,245907 -1771,58937 -2953,123308 -2953,189568 0,18307 237,36614 237,54921 354,30001 590,59646 1181,89410 708,36851 2126,72875 3897,107600 1890,39449 4489,76772 8268,111024 6614,66260 45591,183190 59646,215316 73938,170434 -1201779,180237 -1805208,-251340z"/>
  <path class="fil7" d="M5377710 5502789l297049 399097c0,0 -174096,232915 -483074,60945l186025 -460042z"/>
  <g style="clip-path:url(#id4)">
   <g id="_1373410144">
   </g>
  </g>
  <path id="1" class="fil13" d="M5377710 5502789l297049 399097c0,0 -174096,232915 -483074,60945l186025 -460042z"/>
  <path class="fil7" d="M5595270 5918067c0,0 1088156,2657733 855950,6033698l-343230 622799 -386932 -530436c0,0 -62480,-4483610 -371341,-6136691l245553 10630z"/>
  <g style="clip-path:url(#id5)">
   <g id="_1373408752">
   </g>
  </g>
  <path id="1" class="fil13" d="M5595270 5918067c0,0 1088156,2657733 855950,6033698l-343230 622799 -386932 -530436c0,0 -62480,-4483610 -371341,-6136691l245553 10630z"/>
  <path class="fil15" d="M5695664 5130740l-317954 372049c0,0 -510358,-98859 -660240,-365435 -149883,-266695 978194,-6614 978194,-6614z"/>
  <g style="clip-path:url(#id6)">
   <g id="_1373406712">
   </g>
  </g>
  <path id="1" class="fil13" d="M5695664 5130740l-317954 372049c0,0 -510358,-98859 -660240,-365435 -149883,-266695 978194,-6614 978194,-6614z"/>
  <path class="fil16" d="M5768657 4805108c0,0 -36969,283702 -390947,697681l386459 519216 209056 -1077054 -204568 -139843z"/>
  <g style="clip-path:url(#id7)">
   <g id="_1373405800">
   </g>
  </g>
  <path id="1" class="fil13" d="M5768657 4805108c0,0 -36969,283702 -390947,697681l386459 519216 209056 -1077054 -204568 -139843z"/>
  <path class="fil16" d="M4123608 4464003c0,0 737957,834691 1254102,1038786l-240002 593626 -1177802 -1299221 163702 -333191z"/>
  <g style="clip-path:url(#id8)">
   <g id="_1373405536">
   </g>
  </g>
  <path id="1" class="fil13" d="M4123608 4464003c0,0 737957,834691 1254102,1038786l-240002 593626 -1177802 -1299221 163702 -333191z"/>
  <path class="fil14" d="M11710347 12015900c0,0 -979613,-949967 -1622018,-1107999 -297049,-73111 -688233,-483074 -1059928,-965085 -122599,-158741 -242718,-325277 -357167,-490160 -237,-355 -237,-709 -237,-709 -456144,-658469 -813430,-1289653 -813430,-1289653 0,0 -1348118,-1579853 -266340,-2284148 0,0 463586,-9921 717878,128150 261498,141970 819218,1306071 913825,1512175 94607,205867 1118983,2120564 1187605,2163556 68623,42993 182954,200434 592917,421066 501736,270238 1290126,1061108 1290126,1061108l-583231 851699z"/>
  <g style="clip-path:url(#id9)">
   <g id="_1373404168">
   </g>
  </g>
  <path id="1" class="fil13" d="M11710347 12015900c0,0 -979613,-949967 -1622018,-1107999 -297049,-73111 -688233,-483074 -1059928,-965085 -122599,-158741 -242718,-325277 -357167,-490160 -237,-355 -237,-709 -237,-709 -456144,-658469 -813430,-1289653 -813430,-1289653 0,0 -1348118,-1579853 -266340,-2284148 0,0 463586,-9921 717878,128150 261498,141970 819218,1306071 913825,1512175 94607,205867 1118983,2120564 1187605,2163556 68623,42993 182954,200434 592917,421066 501736,270238 1290126,1061108 1290126,1061108l-583231 851699z"/>
  <path class="fil17" d="M6685907 13000000l-51142 -29528c-23977,-13464 -45237,-24567 -59646,-30236 -60473,-23977 -200198,-58465 -329058,-156733 -128859,-98151 -548743,-491106 -548743,-491106l271419 -417168 125316 -413152c0,0 979021,97324 1109652,174923 12638,7677 24921,15708 35906,24094 104174,76418 149646,177167 199844,223466 18189,17126 188741,199726 179174,273663 -13110,102757 -63898,168663 -127560,199962 0,0 -34607,199962 -137954,289490 0,0 -25984,185670 -186261,260198 0,0 -11456,44292 -36023,92127l-444924 0z"/>
  <g style="clip-path:url(#id10)">
   <g id="_1373402224">
   </g>
  </g>
  <path id="1" class="fil13" d="M6685907 13000000l-51142 -29528c-23977,-13464 -45237,-24567 -59646,-30236 -60473,-23977 -200198,-58465 -329058,-156733 -128859,-98151 -548743,-491106 -548743,-491106l271419 -417168 125316 -413152c0,0 979021,97324 1109652,174923 12638,7677 24921,15708 35906,24094 104174,76418 149646,177167 199844,223466 18189,17126 188741,199726 179174,273663 -13110,102757 -63898,168663 -127560,199962 0,0 -34607,199962 -137954,289490 0,0 -25984,185670 -186261,260198 0,0 -11456,44292 -36023,92127l-444924 0z"/>
  <path class="fil8" d="M5449285 492641c0,0 1769538,-426617 1396898,1813830 -372758,2240446 -797249,2422219 -1875247,1975642 -1077881,-446696 -1002999,-1879854 -1067251,-2581079 -64252,-701107 979612,-1175676 1545600,-1208393z"/>
  <g style="clip-path:url(#id11)">
   <g id="_1373401552">
   </g>
  </g>
  <path id="1" class="fil13" d="M5449285 492641c0,0 1769538,-426617 1396898,1813830 -372758,2240446 -797249,2422219 -1875247,1975642 -1077881,-446696 -1002999,-1879854 -1067251,-2581079 -64252,-701107 979612,-1175676 1545600,-1208393z"/>
  <path class="fil8" d="M4519634 2044146c-26339,-196773 -417050,-263269 -443979,32717 -27048,295986 188977,811658 336025,758509 147167,-53269 144214,-519807 107954,-791226z"/>
  <g style="clip-path:url(#id12)">
   <g id="_1373400256">
   </g>
  </g>
  <path id="1" class="fil13" d="M4519634 2044146c-26339,-196773 -417050,-263269 -443979,32717 -27048,295986 188977,811658 336025,758509 147167,-53269 144214,-519807 107954,-791226z"/>
  <path class="fil18" d="M4007032 2846474c0,0 35433,-704768 292325,-730516 256891,-25748 300592,257245 300592,257245l260317 45237c0,0 -91064,-615949 164056,-727446 255238,-111614 1668553,315239 1872058,131104 203387,-184135 88111,-1434340 -287245,-1600168 -375121,-165827 -1410245,-534570 -2157061,-12992 0,0 -588901,-58465 -669098,417286 -80198,475751 59055,1869697 224056,2220250z"/>
  <g style="clip-path:url(#id13)">
   <g id="_1373398096">
   </g>
  </g>
  <path id="1" class="fil13" d="M4007032 2846474c0,0 35433,-704768 292325,-730516 256891,-25748 300592,257245 300592,257245l260317 45237c0,0 -91064,-615949 164056,-727446 255238,-111614 1668553,315239 1872058,131104 203387,-184135 88111,-1434340 -287245,-1600168 -375121,-165827 -1410245,-534570 -2157061,-12992 0,0 -588901,-58465 -669098,417286 -80198,475751 59055,1869697 224056,2220250z"/>
  <path class="fil14" d="M6427952 11462077l-730634 1256228c0,0 -1935602,-498782 -2387259,-626224l1032408 -1228826c0,0 1522096,347837 2085485,598822z"/>
  <g style="clip-path:url(#id14)">
   <g id="_1373398576">
   </g>
  </g>
  <path id="1" class="fil13" d="M6427952 11462077l-730634 1256228c0,0 -1935602,-498782 -2387259,-626224l1032408 -1228826c0,0 1522096,347837 2085485,598822z"/>
  <path class="fil9" d="M5763814 4730226l-236 0c-949139,-96733 -1317055,-827486 -1317055,-827486 596933,591736 1311976,575555 1311976,575555 0,18307 237,36614 237,54921 354,30001 590,59646 1181,89410 708,36851 2126,72875 3897,107600z"/>
  <g style="clip-path:url(#id15)">
   <g id="_1373397760">
   </g>
  </g>
  <path id="1" class="fil13" d="M5763814 4730226l-236 0c-949139,-96733 -1317055,-827486 -1317055,-827486 596933,591736 1311976,575555 1311976,575555 0,18307 237,36614 237,54921 354,30001 590,59646 1181,89410 708,36851 2126,72875 3897,107600z"/>
  <polygon class="fil11" points="7147839,8711746 6686615,13000000 13147757,13000000 13480948,13000000 13942171,8711746 "/>
  <g style="clip-path:url(#id16)">
   <g id="_1373397688">
   </g>
  </g>
  <polygon id="1" class="fil13" points="7147839,8711746 6686615,13000000 13147757,13000000 13480948,13000000 13942171,8711746 "/>
  <polygon class="fil11" points="13791698,13000000 14276779,8490170 7535715,8490170 7050633,13000000 6997365,13000000 7488116,8437138 14335717,8437138 13844966,13000000 "/>
  <g style="clip-path:url(#id17)">
   <g id="_1373429656">
   </g>
  </g>
  <polygon id="1" class="fil13" points="13791698,13000000 14276779,8490170 7535715,8490170 7050633,13000000 6997365,13000000 7488116,8437138 14335717,8437138 13844966,13000000 "/>
  <path class="fil10" d="M9909627 11034279c-54567,267167 70040,518271 278387,560909 208466,42520 421538,-139489 476224,-406774 54567,-267167 -70040,-518389 -278388,-560909 -208466,-42638 -421538,139489 -476223,406774z"/>
  <g style="clip-path:url(#id18)">
   <g id="_1373429056">
   </g>
  </g>
  <path id="1" class="fil13" d="M9909627 11034279c-54567,267167 70040,518271 278387,560909 208466,42520 421538,-139489 476224,-406774 54567,-267167 -70040,-518389 -278388,-560909 -208466,-42638 -421538,139489 -476223,406774z"/>
  <path class="fil19" d="M5901650 3158405c-591,-5669 60237,-17835 158859,-33071 25040,-3189 48662,-8858 52441,-26103 5434,-18307 -5787,-45000 -18779,-73937 -25158,-60000 -51497,-123072 -79135,-189096 -110315,-269293 -190749,-490869 -179883,-495239 10867,-4370 109017,210356 219214,479649 26575,66378 52087,129685 76182,190276 10276,28229 27402,60237 15591,98151 -6260,18897 -24331,33071 -40276,37795 -15945,5315 -30000,6024 -42402,6969 -99449,8031 -161222,10157 -161812,4606z"/>
  <path class="fil20" d="M5690704 3481675c0,0 234568,154607 523467,38740 0,0 -264804,523940 -523467,-38740z"/>
  <path class="fil19" d="M5285938 2677103c-6497,87048 22795,160158 65315,163347 42520,3189 82205,-64843 88701,-152009 6378,-87047 -22795,-160158 -65433,-163347 -42402,-3071 -82205,64961 -88583,152009z"/>
  <path class="fil19" d="M6189959 2699190c-6378,87047 22913,160276 65315,163347 42638,3189 82323,-64843 88701,-152009 6497,-86929 -22677,-160158 -65315,-163229 -42520,-3189 -82205,64843 -88701,151891z"/>
  <path class="fil19" d="M5999564 2043083c34134,-42874 77835,-62480 125434,-72992 47480,-9331 97323,-12284 146339,-4489 49252,6142 96851,24922 138190,50080 42874,23858 76300,59409 105119,95197 14527,18071 11693,44528 -6378,59055 -14410,11811 -34371,12284 -49134,2717l-4016 -2598c-32717,-21024 -63898,-40631 -97324,-53032 -32362,-14528 -66968,-19607 -101103,-22323 -34134,-1890 -69213,-118 -103937,7795 -34252,7205 -70749,15354 -110434,12638l-11339 -709c-24212,-1653 -42638,-22677 -40984,-46890 709,-9331 4134,-17716 9567,-24449z"/>
  <path class="fil19" d="M5579916 2042493c-33544,-43229 -77009,-63544 -124371,-74765 -47363,-10039 -97087,-13700 -146222,-6732 -49370,5433 -97205,23504 -139016,48071 -43229,23268 -77127,58229 -106418,93544 -14882,17953 -12402,44410 5433,59174 14173,11929 34134,12756 49134,3425l4016 -2480c32953,-20552 64489,-39686 98032,-51497 32599,-14173 67205,-18661 101457,-20905 34253,-1418 69213,945 103820,9330 34134,7796 70512,16418 110197,14292l11339 -591c24331,-1181 42992,-21850 41693,-46181 -472,-9331 -3779,-17717 -9094,-24685z"/>
  <path class="fil19" d="M17989833 3355650c48072,-42756 102521,-56693 159804,-59173 56694,-1300 115041,5315 170198,24094 55631,17008 107009,48308 149765,85867 44764,36142 76182,83977 102402,131221 13229,23741 4607,53859 -19134,66969 -19134,10630 -42165,7205 -57402,-6732l-4252 -3780c-33543,-30945 -65787,-59882 -101811,-80906 -34725,-23386 -73583,-36142 -112442,-46181 -39213,-9095 -80079,-13937 -121772,-11811 -41221,1299 -85158,3425 -130277,-7559l-13110 -3189c-27756,-6733 -44646,-34725 -37914,-62481 2599,-10512 8386,-19606 15945,-26339z"/>
  <path class="fil19" d="M17174159 3255610c-48189,-42756 -102520,-56693 -159804,-59173 -56693,-1300 -114922,5315 -170198,24094 -55630,17008 -107008,48308 -149765,85867 -44764,36142 -76181,83977 -102402,131221 -13228,23741 -4606,53859 19252,66969 19016,10630 42048,7205 57402,-6732l4016 -3780c33544,-30945 65906,-59882 101930,-80906 34724,-23386 73583,-36142 112441,-46181 39213,-9095 80198,-13937 121891,-11811 41103,1299 85040,3425 130158,-7559l12992 -3189c27756,-6733 44764,-34725 38032,-62481 -2598,-10512 -8386,-19606 -15945,-26339z"/>
  <path class="fil21" d="M18037314 4569358c0,194411 157560,351971 351971,351971 194410,0 352088,-157560 352088,-351971 0,-194528 -157678,-352088 -352088,-352088 -194411,0 -351971,157560 -351971,352088z"/>
  <path class="fil21" d="M16536714 4569358c0,194411 157560,351971 351971,351971 194411,0 352089,-157560 352089,-351971 0,-194528 -157678,-352088 -352089,-352088 -194411,0 -351971,157560 -351971,352088z"/>
  <path class="fil19" d="M18075582 3887858c0,116576 46181,211064 102993,211064 57047,0 103229,-94488 103229,-211064 0,-116575 -46182,-211182 -103229,-211182 -56812,0 -102993,94607 -102993,211182z"/>
  <path class="fil22" d="M18389167 3609943c-17363,34134 -40276,63898 -69804,90001 -29055,26102 -66260,46417 -107835,55866l-1772 354c-20551,4843 -40985,-8031 -45827,-28582 -4606,-20552 8150,-40985 28701,-45827 3307,-709 6850,-945 10039,-827 57757,2244 121891,-32835 165474,-83741l827 -827c4252,-5315 12047,-5787 17244,-1417 4488,3780 5551,10039 2953,15000z"/>
  <path class="fil19" d="M17088411 3887858c0,116576 -46064,211064 -103111,211064 -56930,0 -103111,-94488 -103111,-211064 0,-116575 46181,-211182 103111,-211182 57047,0 103111,94607 103111,211182z"/>
  <path class="fil22" d="M16795850 3597187c43701,50906 107835,85985 165355,83741 21142,-827 38859,15472 39803,36614 709,21024 -15708,38741 -36732,39685 -3425,119 -6732,-236 -9921,-944l-1890 -473c-41693,-9449 -78780,-29764 -107954,-55866 -29409,-26103 -52205,-55867 -69803,-90001 -3071,-6142 -709,-13583 5433,-16535 5079,-2717 11457,-1300 15000,2952l709 827z"/>
  <path class="fil19" d="M18019125 4926762c-35670,69686 -90119,129804 -155316,176694 -65197,47126 -146812,77363 -230907,76654 -83504,-2008 -165473,-30473 -229844,-79252 -33661,-21969 -60000,-52914 -89055,-79135 -24213,-31299 -47954,-62598 -69214,-94961 31890,23268 60946,48189 90119,72166 32481,19724 61418,44055 94371,60591 64134,36614 134056,56811 203859,57874 70276,1772 140198,-20433 204805,-55158 64370,-35669 124961,-81851 181182,-135473z"/>
  <path class="fil19" d="M17655816 3865299c18307,79607 31771,158741 46535,236931 15237,77953 29528,155906 51733,229843 5197,18662 10866,36851 17598,54450 5315,14527 18308,42283 17953,68150 2599,52795 -31181,104410 -74173,125197 -43820,24685 -94607,20906 -134529,7205 -40630,-14646 -75945,-36614 -106654,-63662 74056,27756 160513,49489 212718,10158 26102,-19961 40276,-46418 36496,-75237 -1299,-14882 -6023,-24331 -15472,-47008 -7914,-19725 -14882,-39567 -20906,-59646 -22559,-80434 -34252,-161576 -38740,-242954 -4607,-81143 -3071,-162403 7441,-243427z"/>
  <path class="fil23" d="M4794950 3116003c-14645,197482 133584,369451 330947,384097 197600,14646 369569,-133702 384215,-331183 14646,-197600 -133701,-369451 -331183,-383979 -197482,-14646 -369333,133466 -383979,331065z"/>
  <path class="fil23" d="M6172833 3112578c-14646,197481 133465,369451 330947,383979 29055,2126 57520,826 85039,-3780 54922,-182954 106891,-395672 156970,-640398 -53150,-40039 -117875,-65669 -189096,-70984 -197481,-14646 -369333,133583 -383860,331183z"/>
 </g>
</svg>
