<?xml version="1.0" encoding="UTF-8"?><svg id="Capa_1" xmlns="http://www.w3.org/2000/svg" xmlns:xlink="http://www.w3.org/1999/xlink" viewBox="0 0 42 41"><defs><style>.cls-1{clip-path:url(#clippath);}.cls-2{clip-rule:evenodd;fill:none;}.cls-3{fill:#fff;}.cls-3,.cls-4{fill-rule:evenodd;}.cls-4{fill:#fee17b;}</style><clipPath id="clippath"><path class="cls-2" d="M6.19,.67H42.19V40.67H6.19c-2.21,0-4-1.79-4-4V4.67C2.19,2.46,3.98,.67,6.19,.67Z"/></clipPath></defs><path class="cls-4" d="M6.19,.67H42.19V40.67H6.19c-2.21,0-4-1.79-4-4V4.67C2.19,2.46,3.98,.67,6.19,.67Z"/><g class="cls-1"><path class="cls-3" d="M22.19,27.81c-.78,0-1.4-.63-1.4-1.4s.63-1.4,1.4-1.4,1.4,.63,1.4,1.4c0,.77-.63,1.4-1.4,1.4m-1.07-11.07c0-.59,.48-1.07,1.07-1.07s1.07,.48,1.07,1.07v5.72c0,.59-.48,1.07-1.03,1.07s-1.11-.48-1.11-1.07v-5.72Zm12.25,11.12L23.84,11.61c-.73-1.25-2.57-1.25-3.3,0L11.02,27.86c-.73,1.24,.18,2.81,1.65,2.81H31.72c1.46,0,2.38-1.56,1.65-2.81h0Z"/></g></svg>