<?xml version="1.0" encoding="UTF-8"?><svg id="Capa_1" xmlns="http://www.w3.org/2000/svg" xmlns:xlink="http://www.w3.org/1999/xlink" viewBox="0 0 296 99"><defs><style>.cls-1,.cls-2{fill:none;}.cls-3{clip-path:url(#clippath);}.cls-4{fill:#f69576;}.cls-5{fill:#fcfcfd;}.cls-6{fill:#eea886;}.cls-7{fill:#eea987;}.cls-8{fill:#fefefe;}.cls-9{fill:#efaa88;}.cls-10{fill:#97a43c;}.cls-11{fill:#98989a;}.cls-12{fill:#9f2241;}.cls-13{fill:#303451;}.cls-14{fill:#bbd070;}.cls-15{fill:#bc955c;}.cls-16{fill:#a77860;}.cls-17{fill:#c4c1cc;}.cls-18{fill:#dbd8e3;}.cls-19{fill:#e09b79;}.cls-20{fill:#16202e;}.cls-21{fill:#252e3b;}.cls-22{fill:#235b4e;}.cls-23{fill:#6f7271;}.cls-24{fill:#48753a;}.cls-25{fill:#2c3c43;}.cls-26{fill:#4da8f2;}.cls-2{clip-rule:evenodd;}.cls-27{clip-path:url(#clippath-4);}.cls-28{clip-path:url(#clippath-12);}</style><clipPath id="clippath"><path class="cls-2" d="M4.12,.2H281.18V99.2s0,0,0,0H-.83V5.15C-.83,2.42,1.4,.2,4.12,.2"/></clipPath><clipPath id="clippath-4"><path class="cls-1" d="M20.3,58.64s1.01-1.91,.73-7.34c-.08-1.5,7.9,3.57,7.9,3.57,0,0-.03,.52-.04,1.22,0,.29-.01,.61-.01,.94,0,.09,0,.18,0,.27,0,.15,0,.3,0,.44,0,.18,.01,.36,.02,.53,0,.2,.02,.38,.04,.55,.03,.33,.23,.91,.3,1.07,.37,.84-5.95,.89-8.93-1.24"/></clipPath><clipPath id="clippath-12"><path class="cls-1" d="M27.34,37.29s8.76-2.11,6.91,8.98c-1.84,11.09-3.95,11.99-9.28,9.78-5.34-2.21-4.96-9.3-5.28-12.78-.32-3.47,4.85-5.82,7.65-5.98"/></clipPath></defs><rect class="cls-5" x="-.83" y=".2" width="296.83" height="98.62"/><g class="cls-3"><path class="cls-14" d="M90.57,42.77s5.22,20.79-7.31,26.47c-12.54,5.68-10.13-4.72-10.13-4.72,0,0-5.14-1.43,8.85-9.36,6.6-3.74,8.6-12.39,8.6-12.39"/><path class="cls-10" d="M123.4,44.58s2.57,18.12-21.15,25.95c-23.72,7.83-27.1,17.77-27.1,17.77,0,0-.71-40.16,48.25-43.72"/><path class="cls-24" d="M75.04,80.93c-7.03-2.68,9.69-17.08,22.54-16.69,12.85,.39,21.56,5.14,30.16,3.14,0,0-18.06,26.78-52.7,13.56"/><path class="cls-14" d="M22.91,53.45s-12.92,9.12-8.64,18.32c4.28,9.21,7.94,2.23,7.94,2.23,0,0,3.56,1.67-.45-9.49-1.89-5.26,1.15-11.06,1.15-11.06"/><path class="cls-10" d="M3.68,38.68s-10.15,8.9-.65,24.69c9.5,15.79,6.61,22.97,6.61,22.97,0,0,19.71-22.12-5.96-47.65"/><path class="cls-24" d="M13.25,82.26c5.22,1.88,2.8-14.21-4.58-20.17-7.37-5.96-14.53-7.49-18.38-12.75,0,0-2.78,23.66,22.95,32.92"/><path class="cls-15" d="M72.75,71.38c1.06-1.76,1.84-3.63,2.36-5.57l4.18-.8,.04-4.63,.04-4.63-4.17-.88c-.48-1.94-1.23-3.83-2.26-5.61l2.39-3.52-3.24-3.3-3.24-3.3-3.57,2.32c-1.76-1.06-3.63-1.85-5.57-2.36l-.8-4.18-4.63-.04-4.63-.04-.88,4.17c-1.94,.48-3.83,1.23-5.61,2.26l-3.52-2.39-3.3,3.24-3.3,3.24,2.32,3.57c-1.06,1.76-1.85,3.63-2.36,5.57l-4.18,.8-.04,4.63-.04,4.63,4.17,.88c.48,1.94,1.23,3.83,2.26,5.61l-2.39,3.52,3.24,3.3,3.24,3.3,3.57-2.32c1.76,1.06,3.63,1.85,5.57,2.36l.8,4.18,4.63,.04,4.63,.04,.88-4.17c1.94-.48,3.83-1.23,5.61-2.26l3.52,2.39,3.3-3.24,3.3-3.24-2.32-3.57Zm-26.79-3.28c-4.39-4.47-4.32-11.66,.15-16.05,4.47-4.39,11.66-4.32,16.05,.15,4.39,4.47,4.32,11.66-.15,16.05-4.47,4.39-11.66,4.32-16.05-.15Z"/><path class="cls-26" d="M97.4,79.54c-.27-.36-.71-.6-1.2-.61-.68,0-1.25,.43-1.46,1.03-.05,.15-.08,.3-.08,.47,0,.19,.03,.37,.09,.54,.1,.27,.27,.51,.5,.68,.22,.17,.49,.28,.79,.31,.04,0,.08,0,.12,0,.03,0,.05,0,.08,0h.03c.15,0,.3-.04,.44-.09,.58-.21,.99-.76,1-1.41,0-.35-.11-.67-.31-.93m-.83,1.99h0c-.1,.04-.21,.06-.33,.07-.03,0-.05,0-.08,0-.11,0-.21-.02-.31-.05-.14-.04-.26-.11-.37-.19-.04-.03-.08-.06-.11-.1-.21-.21-.33-.5-.33-.82,0-.08,.01-.16,.03-.24,0-.04,.02-.07,.03-.11,.15-.46,.59-.78,1.09-.77,.36,0,.69,.18,.89,.45,.15,.2,.24,.44,.23,.71,0,.49-.32,.9-.75,1.06Z"/><path class="cls-14" d="M82.49,52.6s-7.52,7.15-3.86,12.72c3.66,5.57,5.37,.69,5.37,.69,0,0,2.47,.75-1.2-6.12-1.73-3.24-.31-7.29-.31-7.29"/><path class="cls-21" d="M94.24,54.64s3.62-10.6-3.28-13.89c-6.9-3.29-12.75,1.46-13.86,4.03-1.11,2.57-.81,7.24,.13,10.5,.94,3.26,.81,8.22-1.24,9.88-2.05,1.66-4.59,4.42-4.47,10.03,.08,3.48,13.7-8.9,13.7-8.9l9.03-11.65Z"/><path class="cls-12" d="M84.55,67.25s-5.67,1.26-7.92,2.57c-2.25,1.31-7.25,7.36-7.25,9.97s21.85,5.03,21.85,5.03l4.14,15.12s11.05-2.7,12.36-4.93c1.32-2.24-4.2-18.26-5.14-21.5-.96-3.31-4.92-5.61-9.52-6.26-4.6-.64-8.53,0-8.53,0"/><path class="cls-6" d="M92.68,67.2s-.13,6.89-5.59,7.1c-5.47,.2-4.33-6.61-4.33-6.61,0,0,4-1.62,9.92-.49"/><path class="cls-21" d="M95,46.41s1.93,11.08-3.57,19.09c-5.7,8.29,3.57-19.09,3.57-19.09"/><path class="cls-6" d="M91.51,62.33s-.38,3.3,.25,5.35c.63,2.05-8.36,2.11-8.35,.42,0-1.92,.92-3.51,.06-6.8-.86-3.28,8.04,1.03,8.04,1.03"/><path class="cls-16" d="M84.54,62.75s2.84,2.96,6.47,.31c0,0-.3,1.89-2.91,2.13-2.61,.24-3.56-2.44-3.56-2.44"/><path class="cls-6" d="M88.09,42.56s7.17,2.12,6.15,12.08c-1.03,9.96-5.71,9.44-6.15,9.52-.44,.07-6,.44-7.76-11.64-1.76-12.08,7.76-9.96,7.76-9.96"/><path class="cls-21" d="M86.24,47s3.9,6.2,8,7.64c0,0,2.24-10.41-7.01-12.59-9.25-2.18-7.8,10.51-7.11,13.89,0,0,1.93-4.98,6.12-8.95"/><path class="cls-12" d="M81.01,46.07s2.05-3.97,5.52-4.15c3.47-.18,5.53,2.83,5.53,2.83,0,0-1.35-3.38-5.52-3.38s-5.52,4.71-5.52,4.71"/><polygon class="cls-11" points="95.12 77.32 97.55 99.94 65.53 99.94 63.1 77.32 95.12 77.32"/><path class="cls-11" d="M96.78,99.17h-32.3l-2.46-22.9h32.3l2.46,22.9Zm-32.05-.28h31.74l-2.4-22.34h-31.74l2.4,22.34Z"/><path class="cls-23" d="M82.31,88.27c.29,1.41-.37,2.73-1.47,2.95-1.1,.22-2.22-.73-2.51-2.14s.37-2.73,1.47-2.95c1.1-.22,2.22,.73,2.51,2.14"/><rect class="cls-11" x="94.52" y="97.67" width="5.98" height="2.27"/><path class="cls-25" d="M89.42,51.46c.24-.21,.51-.28,.79-.29,.28,0,.57,.03,.84,.12,.28,.08,.53,.24,.74,.43,.22,.18,.38,.42,.51,.65,.07,.12,.02,.27-.09,.33-.09,.05-.21,.04-.28-.03l-.02-.02c-.17-.15-.33-.3-.5-.4-.17-.12-.36-.18-.56-.23-.19-.05-.4-.07-.6-.06-.2,0-.42,.02-.64-.04l-.06-.02c-.14-.03-.22-.17-.19-.31,.01-.05,.04-.1,.08-.13"/><path class="cls-18" d="M40.83,73.33c.23-3.1,.39-6,.48-8.7-.75-.4-1.65-.86-2.37-1.2-2.23-1.06-5.33-2.49-7.32-3.4-1.17-.54-2.31-.93-2.31-.93,0,0-7.96-.76-8.6-.72-.2,.01-1.2,.36-2.5,.86-2.82,1.07-8.26,3.25-9.13,3.87-1.27,.91-5.82,23.19-5.94,24.7-.12,1.47,6.18,3.48,12.01,5.02,0,2.26-.05,5.42-.1,8.31,0,.49-.02,.98-.03,1.45h25.52c-.03-.5-.06-.99-.09-1.45,0-.06,0-.12,0-.18-.1-1.96-.48-5.46-.38-8.87,0,0-.06-3.6,.3-5.14,.04-6.84,.45-13.61,.45-13.61m-32.36,13.1c.04-2.9,3.9-8.29,3.9-8.29,0,0,.18-.08,.18-.07,0,0,.2-.03,.2-.03,0,0,.6-.57,.6-.57,.14,.52,1.42,7.8,1.73,12.04-3.63-.71-6.64-1.7-6.62-3.09Z"/><path class="cls-22" d="M41.31,101.14c-.17-1.21-.33-2.42-.47-3.6,0,0,0-.01,0-.02-.05-.39-.09-.78-.14-1.17,0-.02,0-.04,0-.06-.19-1.63-.34-3.19-.45-4.62-.08-1.1,0-2.17,.14-3.21,.44-7.31,.66-15.02,.66-15.02,.23-3.16,.37-6.11,.46-8.85,0,0-9.99-4.72-10.9-4.99,0,0,1.9,4.45,3.32,14.4,.55,3.82,1.56,10.25,2.29,16.81h0c.4,3.54,1.14,7.15,1.71,10.34,.09,.49,.17,.98,.25,1.45h3.34c-.07-.48-.14-.96-.21-1.45"/><path class="cls-22" d="M24.67,89.39c.39-3.7,.75-7.39,.58-9.41-1.38-16.26-5.28-20.56-5.84-21.19-.44,.17-2.1,.79-2.59,.98-2.67,1.05-8.1,2.98-8.83,3.5-1.27,.91-6.28,24.26-6.43,25.77-.1,1.02,6.43,3.15,13.1,5.06-.06,1.83,.11,4.41-.5,7.1-.11,.48-.26,.78-.29,1.41l9.29-.04c.06-.48,.12-.96,.17-1.45,.18-1.45,.36-2.94,.55-4.52,2.79,.72,4.68,1.19,4.68,1.19,0,0,2.62-4.43,3.38-6.22,.13-.31-3.24-1.12-7.28-2.19m-12.02-5.6c-.09-3.33-.07-5.65-.07-5.65,.33,1.14,.79,4.4,1.19,7.64-1.35-.68-1.1-1.31-1.11-1.99Z"/><path class="cls-7" d="M20.3,58.64s1.01-1.91,.73-7.34c-.08-1.5,7.9,3.57,7.9,3.57,0,0-.03,.52-.04,1.22,0,.29-.01,.61-.01,.94,0,.09,0,.18,0,.27,0,.15,0,.3,0,.44,0,.18,.01,.36,.02,.53,0,.2,.02,.38,.04,.55,.03,.33,.23,.91,.3,1.07,.37,.84-5.95,.89-8.93-1.24"/><g class="cls-27"><path class="cls-4" d="M24.58,50.79c-.07,.98,.66,1.83,1.64,1.9,.98,.07,1.83-.66,1.9-1.64,.07-.98-.66-1.83-1.64-1.9-.98-.07-1.83,.66-1.9,1.64"/></g><path class="cls-12" d="M26.99,62.09l1.47,1.98s-.86,1.15-2.39,.3l.92-2.28Z"/><path class="cls-12" d="M28.07,64.14s5.39,13.15,4.24,29.86l-1.7,3.08-1.92-2.63s-.31-22.19-1.84-30.37l1.22,.05Z"/><path class="cls-7" d="M28.56,60.25l-1.57,1.84s-2.53-.49-3.27-1.81c-.74-1.32,4.84-.03,4.84-.03"/><path class="cls-17" d="M28.93,58.63s-.18,1.4-1.94,3.45l1.91,2.57,1.03-5.33-1.01-.69Z"/><path class="cls-17" d="M20.78,56.95s3.65,4.13,6.21,5.14l-1.19,2.94-5.83-6.43,.81-1.65Z"/><path class="cls-22" d="M58.33,94.33s-4.85-4.7-8.03-5.48c-1.47-.36-3.41-2.39-5.25-4.78-.61-.79-1.2-1.61-1.77-2.43,0,0,0,0,0,0-2.26-3.26-4.03-6.38-4.03-6.38,0,0-6.67-7.82-1.32-11.31,0,0,2.29-.05,3.55,.63,1.29,.7,4.05,6.46,4.52,7.48,.47,1.02,5.54,10.5,5.88,10.71,.34,.21,.91,.99,2.93,2.08,2.48,1.34,6.39,5.25,6.39,5.25l-2.89,4.22Z"/><path class="cls-9" d="M35.06,99.77s-.68-.03-.97-.18c0,0-.51-.33-.88-.53-.12-.07-.22-.12-.3-.15-.3-.12-.99-.29-1.63-.78-.64-.49-2.72-2.43-2.72-2.43l1.34-2.06,.62-2.04s4.85,.48,5.49,.87c.06,.04,.12,.08,.18,.12,.52,.38,.74,.88,.99,1.11,.09,.08,.93,.99,.89,1.35-.06,.51-.32,.83-.63,.99,0,0-.17,.99-.68,1.43,0,0-.13,.92-.92,1.29,0,0-.23,.92-.79,1.03"/><path class="cls-6" d="M27.34,37.29s8.76-2.11,6.91,8.98c-1.84,11.09-3.95,11.99-9.28,9.78-5.34-2.21-4.96-9.3-5.28-12.78-.32-3.47,4.85-5.82,7.65-5.98"/><g class="cls-28"><path class="cls-4" d="M24.58,50.79c-.07,.98,.66,1.83,1.64,1.9,.98,.07,1.83-.66,1.9-1.64,.07-.98-.66-1.83-1.64-1.9-.98-.07-1.83,.66-1.9,1.64"/><path class="cls-4" d="M31.4,50.77c-.07,.98,.66,1.83,1.64,1.9,.98,.07,1.83-.66,1.9-1.64,.07-.98-.66-1.83-1.64-1.9-.98-.07-1.83,.66-1.9,1.64"/></g><path class="cls-6" d="M22.74,44.97c-.13-.97-2.06-1.3-2.2,.16-.13,1.47,.94,4.02,1.66,3.75,.73-.26,.71-2.57,.53-3.92"/><path class="cls-20" d="M20.21,48.94s.18-3.49,1.45-3.62c1.27-.13,1.49,1.27,1.49,1.27l1.29,.22s-.45-3.05,.81-3.6c1.26-.55,8.26,1.56,9.27,.65,1.01-.91,.44-7.1-1.42-7.92-1.86-.82-6.98-2.65-10.68-.06,0,0-2.91-.29-3.31,2.07-.4,2.35,.29,9.25,1.11,10.99"/><path class="cls-22" d="M32.19,91.58l-3.62,6.22s-9.58-2.47-11.82-3.1l5.11-6.08s7.53,1.72,10.32,2.96"/><path class="cls-16" d="M28.9,58.26h0c-4.7-.48-6.52-4.1-6.52-4.1,2.95,2.93,6.49,2.85,6.49,2.85,0,.09,0,.18,0,.27,0,.15,0,.3,0,.44,0,.18,.01,.36,.02,.53"/><path class="cls-6" d="M38.99,86.48c5.45,5.61,12.64,12.66,12.64,12.66l2.81-5.34s-6.39-7.49-10.72-12.49c-1.33,.65-3.77,2.2-4.73,5.16"/><path class="cls-6" d="M35.62,94.01s1.47,.71,1.85,1.02c.38,.32,1.93,1.48,2.31,1.75,.38,.27-.57,1.05-3.34-.15-2.77-1.2-.82-2.62-.82-2.62"/><polygon class="cls-23" points="35.75 77.97 33.2 101.73 66.83 101.73 69.38 77.97 35.75 77.97"/><path class="cls-23" d="M68.75,100.63H34.85l2.58-24.02h33.89l-2.58,24.02Zm-33.6-.26h33.37l2.53-23.49H37.67l-2.53,23.49Z"/><path class="cls-11" d="M49.42,89.47c-.27,1.32,.35,2.57,1.38,2.78,1.03,.21,2.09-.69,2.36-2.01,.27-1.32-.35-2.57-1.38-2.78-1.03-.21-2.09,.69-2.36,2.01"/><path class="cls-25" d="M29.58,50.48s.3-.09,.79-.16c.12-.02,.24-.04,.26-.13,.03-.09-.03-.22-.09-.37-.12-.3-.25-.61-.39-.94-.55-1.33-.94-2.43-.89-2.45,.05-.02,.54,1.04,1.09,2.37,.13,.33,.26,.64,.38,.94,.05,.14,.14,.3,.08,.49-.03,.09-.12,.16-.2,.19-.08,.03-.15,.03-.21,.03-.49,.04-.8,.05-.8,.02"/><path class="cls-25" d="M85.38,50.97c-.24-.21-.51-.28-.79-.29-.28,0-.57,.03-.84,.12-.28,.08-.53,.24-.74,.43-.22,.18-.38,.42-.51,.65-.07,.12-.02,.27,.1,.33,.09,.05,.21,.04,.28-.03l.02-.02c.17-.15,.33-.3,.5-.4,.17-.12,.36-.18,.56-.23,.19-.05,.4-.07,.6-.06,.2,0,.42,.02,.64-.04l.06-.02c.14-.03,.22-.17,.19-.31-.01-.05-.04-.1-.08-.13"/><path class="cls-19" d="M89.65,57.47c0,.96,.78,1.74,1.74,1.74s1.74-.78,1.74-1.74-.78-1.74-1.74-1.74-1.74,.78-1.74,1.74"/><path class="cls-19" d="M82.22,57.47c0,.96,.78,1.74,1.74,1.74s1.74-.78,1.74-1.74-.78-1.74-1.74-1.74-1.74,.78-1.74,1.74"/><path class="cls-8" d="M28.54,52.08s1.16,.77,2.59,.19c0,0-1.31,2.59-2.59-.19"/><path class="cls-25" d="M26.54,48.1c-.03,.43,.11,.79,.32,.81,.21,.02,.41-.32,.44-.75,.03-.43-.11-.79-.32-.81-.21-.02-.41,.32-.44,.75"/><path class="cls-25" d="M31.01,48.21c-.03,.43,.11,.79,.32,.81,.21,.02,.41-.32,.44-.75,.03-.43-.11-.79-.32-.81-.21-.02-.41,.32-.44,.75"/><path class="cls-25" d="M30.07,44.96c.17-.21,.39-.31,.62-.36,.23-.05,.48-.06,.72-.02,.24,.03,.48,.12,.68,.25,.21,.12,.38,.29,.52,.47,.07,.09,.06,.22-.03,.29-.07,.06-.17,.06-.24,.01h-.02c-.16-.12-.32-.21-.48-.28-.16-.07-.33-.1-.5-.11-.17,0-.34,0-.51,.04-.17,.04-.35,.08-.55,.06h-.06c-.12-.01-.21-.12-.2-.24,0-.05,.02-.09,.05-.12"/><path class="cls-25" d="M27.99,44.96c-.17-.21-.38-.31-.62-.37-.23-.05-.48-.07-.72-.03-.24,.03-.48,.12-.69,.24-.21,.12-.38,.29-.53,.46-.07,.09-.06,.22,.03,.29,.07,.06,.17,.06,.24,.02h.02c.16-.11,.32-.21,.49-.27,.16-.07,.33-.09,.5-.1,.17,0,.34,0,.51,.05,.17,.04,.35,.08,.55,.07h.06c.12,0,.21-.11,.21-.23,0-.05-.02-.09-.04-.12"/><path class="cls-25" d="M89.84,54.09c0,.58,.23,1.04,.51,1.04s.51-.47,.51-1.04-.23-1.05-.51-1.05-.51,.47-.51,1.05"/><path class="cls-13" d="M91.39,52.72c-.09,.17-.2,.32-.35,.45-.14,.13-.33,.23-.53,.28h0c-.1,.03-.2-.04-.23-.14-.02-.1,.04-.2,.14-.23,.02,0,.03,0,.05,0,.29,.01,.6-.16,.82-.41h0s.06-.03,.09-.01c.02,.02,.03,.05,.01,.07"/><path class="cls-25" d="M84.95,54.09c0,.58-.23,1.04-.51,1.04s-.51-.47-.51-1.04,.23-1.05,.51-1.05,.51,.47,.51,1.05"/><path class="cls-13" d="M83.51,52.66c.22,.25,.53,.43,.82,.41,.1,0,.19,.08,.2,.18,0,.1-.08,.19-.18,.2-.02,0-.03,0-.05,0h0c-.21-.05-.39-.15-.53-.28-.15-.13-.26-.28-.35-.45-.02-.03,0-.07,.03-.08,.03-.01,.06,0,.07,.01h0Z"/><path class="cls-25" d="M89.56,59.24c-.18,.35-.45,.64-.77,.87-.32,.23-.73,.38-1.14,.38-.41,0-.82-.15-1.14-.39-.17-.11-.3-.26-.44-.39-.12-.15-.24-.31-.34-.47,.16,.12,.3,.24,.45,.36,.16,.1,.3,.22,.47,.3,.32,.18,.66,.28,1.01,.29,.35,0,.69-.1,1.01-.27,.32-.18,.62-.41,.9-.67"/><path class="cls-25" d="M87.76,53.98c.09,.39,.16,.79,.23,1.17,.08,.39,.15,.77,.26,1.14,.03,.09,.05,.18,.09,.27,.03,.07,.09,.21,.09,.34,.01,.26-.15,.52-.37,.62-.22,.12-.47,.1-.67,.04-.2-.07-.38-.18-.53-.32,.37,.14,.79,.24,1.05,.05,.13-.1,.2-.23,.18-.37,0-.07-.03-.12-.08-.23-.04-.1-.07-.2-.1-.3-.11-.4-.17-.8-.19-1.2-.02-.4-.02-.8,.04-1.2"/></g></svg>