<?xml version="1.0" encoding="UTF-8"?>
<!DOCTYPE svg PUBLIC "-//W3C//DTD SVG 1.1//EN" "http://www.w3.org/Graphics/SVG/1.1/DTD/svg11.dtd">
<!-- Creator: CorelDRAW Home & Student X8 -->
<svg xmlns="http://www.w3.org/2000/svg" xml:space="preserve" width="70px" height="70px" version="1.1" style="shape-rendering:geometricPrecision; text-rendering:geometricPrecision; image-rendering:optimizeQuality; fill-rule:evenodd; clip-rule:evenodd"
viewBox="0 0 7000000 7000000"
 xmlns:xlink="http://www.w3.org/1999/xlink">
 <defs>
  <style type="text/css">
   <![CDATA[
    .fil0 {fill:#DDC9A3;fill-rule:nonzero}
   ]]>
  </style>
 </defs>
 <g id="Capa_x0020_1">
  <metadata id="CorelCorpID_0Corel-Layer"/>
  <path class="fil0" d="M3500000 47599c952097,0 1814784,386579 2439594,1011271l1536 1536c624692,624810 1011271,1487497 1011271,2439594 0,952097 -386579,1814784 -1011271,2439594l-1536 1536c-624810,624692 -1487497,1011271 -2439594,1011271 -952097,0 -1814784,-386579 -2439594,-1011271l-1536 -1536c-624692,-624810 -1011271,-1487497 -1011271,-2439594 0,-952097 386579,-1814784 1011271,-2439594l1536 -1536c624810,-624692 1487497,-1011271 2439594,-1011271zm830324 3551378c237050,-95434 348429,249334 151419,332721 -244254,103347 -365201,-246617 -151419,-332721zm-1956754 -1357101c-371461,64489 -313704,411855 -313704,654810l-118 1440843c-591,534573 508116,420241 1037846,420241l1442142 236c169845,-827 269531,-60591 335673,-156970 85867,-124726 65670,-251105 65670,-419532l118 -960720c473,-177521 -36378,-284058 -135001,-362838 -118939,-95198 -229255,-81379 -398981,-81379 -246735,0 -1862738,9330 -1919549,-3426 -64371,-14409 -99686,-102166 -40394,-154253 42756,-37678 156261,-22441 217797,-22441 142561,0 1839588,8031 1933723,-1654 143505,-14646 214845,-169608 127324,-293153 -67323,-95080 -285003,-65434 -427091,-65434 -149293,0 -1825296,-11693 -1925455,5670zm3002750 -618196c-479887,-479415 -1143202,-775993 -1876320,-775993 -733118,0 -1396433,296578 -1876320,775993 -479415,479887 -775993,1143202 -775993,1876320 0,733118 296578,1396433 775993,1876320 479887,479415 1143202,775993 1876320,775993 733118,0 1396433,-296578 1876320,-775993 479415,-479887 775993,-1143202 775993,-1876320 0,-733118 -296578,-1396433 -775993,-1876320z"/>
 </g>
</svg>
