<?xml version="1.0" encoding="UTF-8"?><svg id="Capa_1" xmlns="http://www.w3.org/2000/svg" viewBox="0 0 30 25"><defs><style>.cls-1{fill:#bc955c;}</style></defs><path class="cls-1" d="M26.61,10.11H9.18l4.35-4.35c.93-.93,.93-2.45,0-3.38h0c-.93-.93-2.45-.93-3.38,0L1.98,10.55c-.1,.07-.19,.15-.28,.24h0c-.47,.47-.71,1.09-.7,1.71,0,.62,.23,1.24,.7,1.71,.09,.09,.18,.17,.28,.24l8.18,8.18c.93,.93,2.45,.93,3.38,0h0c.93-.93,.93-2.45,0-3.38l-4.35-4.35H26.61c1.32,0,2.39-1.07,2.39-2.39h0c0-1.32-1.07-2.39-2.39-2.39Z"/></svg>